<svg id="visual" viewBox="0 0 900 600" width="900" height="600" xmlns="http://www.w3.org/2000/svg" xmlns:xlink="http://www.w3.org/1999/xlink" version="1.1"><g stroke-width="1" stroke-linejoin="bevel"><path d="M462 298L526 297L522 233Z" fill="#1d4e6b" stroke="#1d4e6b"></path><path d="M522 233L437 224L462 298Z" fill="#0c2435" stroke="#0c2435"></path><path d="M526 297L587 238L522 233Z" fill="#0c2435" stroke="#0c2435"></path><path d="M522 233L517 161L437 224Z" fill="#277297" stroke="#277297"></path><path d="M361 308L444 361L462 298Z" fill="#297ea6" stroke="#297ea6"></path><path d="M462 298L534 374L526 297Z" fill="#0c2435" stroke="#0c2435"></path><path d="M587 238L517 161L522 233Z" fill="#15384f" stroke="#15384f"></path><path d="M444 361L534 374L462 298Z" fill="#19435d" stroke="#19435d"></path><path d="M526 297L614 285L587 238Z" fill="#15384f" stroke="#15384f"></path><path d="M612 363L614 285L526 297Z" fill="#15384f" stroke="#15384f"></path><path d="M517 161L445 150L437 224Z" fill="#205a7a" stroke="#205a7a"></path><path d="M372 153L374 224L437 224Z" fill="#1d4e6b" stroke="#1d4e6b"></path><path d="M437 224L361 308L462 298Z" fill="#246688" stroke="#246688"></path><path d="M374 224L361 308L437 224Z" fill="#246688" stroke="#246688"></path><path d="M534 374L612 363L526 297Z" fill="#00101c" stroke="#00101c"></path><path d="M587 238L587 138L517 161Z" fill="#297ea6" stroke="#297ea6"></path><path d="M517 161L456 67L445 150Z" fill="#297ea6" stroke="#297ea6"></path><path d="M666 210L587 138L587 238Z" fill="#277297" stroke="#277297"></path><path d="M361 308L374 377L444 361Z" fill="#15384f" stroke="#15384f"></path><path d="M444 361L522 444L534 374Z" fill="#277297" stroke="#277297"></path><path d="M361 79L372 153L445 150Z" fill="#277297" stroke="#277297"></path><path d="M445 150L372 153L437 224Z" fill="#205a7a" stroke="#205a7a"></path><path d="M374 224L302 234L361 308Z" fill="#081a28" stroke="#081a28"></path><path d="M612 363L665 290L614 285Z" fill="#205a7a" stroke="#205a7a"></path><path d="M614 285L666 210L587 238Z" fill="#081a28" stroke="#081a28"></path><path d="M442 462L522 444L444 361Z" fill="#19435d" stroke="#19435d"></path><path d="M534 374L610 461L612 363Z" fill="#205a7a" stroke="#205a7a"></path><path d="M665 290L666 210L614 285Z" fill="#00101c" stroke="#00101c"></path><path d="M301 162L302 234L374 224Z" fill="#00101c" stroke="#00101c"></path><path d="M361 308L312 389L374 377Z" fill="#205a7a" stroke="#205a7a"></path><path d="M374 377L442 462L444 361Z" fill="#297ea6" stroke="#297ea6"></path><path d="M523 62L456 67L517 161Z" fill="#00101c" stroke="#00101c"></path><path d="M302 234L290 304L361 308Z" fill="#297ea6" stroke="#297ea6"></path><path d="M374 377L378 464L442 462Z" fill="#19435d" stroke="#19435d"></path><path d="M600 76L523 62L587 138Z" fill="#246688" stroke="#246688"></path><path d="M587 138L523 62L517 161Z" fill="#205a7a" stroke="#205a7a"></path><path d="M661 440L676 372L612 363Z" fill="#246688" stroke="#246688"></path><path d="M612 363L676 372L665 290Z" fill="#277297" stroke="#277297"></path><path d="M748 231L682 162L666 210Z" fill="#297ea6" stroke="#297ea6"></path><path d="M748 231L666 210L665 290Z" fill="#1d4e6b" stroke="#1d4e6b"></path><path d="M666 210L682 162L587 138Z" fill="#297ea6" stroke="#297ea6"></path><path d="M682 162L600 76L587 138Z" fill="#00101c" stroke="#00101c"></path><path d="M290 304L312 389L361 308Z" fill="#246688" stroke="#246688"></path><path d="M372 153L301 162L374 224Z" fill="#00101c" stroke="#00101c"></path><path d="M302 234L226 285L290 304Z" fill="#19435d" stroke="#19435d"></path><path d="M361 79L301 162L372 153Z" fill="#081a28" stroke="#081a28"></path><path d="M532 515L610 461L522 444Z" fill="#19435d" stroke="#19435d"></path><path d="M522 444L610 461L534 374Z" fill="#1d4e6b" stroke="#1d4e6b"></path><path d="M312 389L378 464L374 377Z" fill="#246688" stroke="#246688"></path><path d="M453 518L532 515L522 444Z" fill="#1d4e6b" stroke="#1d4e6b"></path><path d="M456 67L361 79L445 150Z" fill="#081a28" stroke="#081a28"></path><path d="M610 461L661 440L612 363Z" fill="#205a7a" stroke="#205a7a"></path><path d="M453 518L522 444L442 462Z" fill="#246688" stroke="#246688"></path><path d="M610 461L610 516L661 440Z" fill="#205a7a" stroke="#205a7a"></path><path d="M381 524L453 518L442 462Z" fill="#1d4e6b" stroke="#1d4e6b"></path><path d="M758 380L749 289L676 372Z" fill="#15384f" stroke="#15384f"></path><path d="M676 372L749 289L665 290Z" fill="#1d4e6b" stroke="#1d4e6b"></path><path d="M749 289L748 231L665 290Z" fill="#297ea6" stroke="#297ea6"></path><path d="M682 162L682 65L600 76Z" fill="#112e42" stroke="#112e42"></path><path d="M225 224L226 285L302 234Z" fill="#19435d" stroke="#19435d"></path><path d="M290 304L231 374L312 389Z" fill="#277297" stroke="#277297"></path><path d="M523 62L461 0L456 67Z" fill="#112e42" stroke="#112e42"></path><path d="M456 67L375 0L361 79Z" fill="#205a7a" stroke="#205a7a"></path><path d="M598 0L520 0L523 62Z" fill="#00101c" stroke="#00101c"></path><path d="M520 0L461 0L523 62Z" fill="#205a7a" stroke="#205a7a"></path><path d="M219 158L225 224L301 162Z" fill="#00101c" stroke="#00101c"></path><path d="M301 162L225 224L302 234Z" fill="#00101c" stroke="#00101c"></path><path d="M679 530L610 516L594 600Z" fill="#277297" stroke="#277297"></path><path d="M532 515L610 516L610 461Z" fill="#277297" stroke="#277297"></path><path d="M310 0L285 86L361 79Z" fill="#277297" stroke="#277297"></path><path d="M361 79L285 86L301 162Z" fill="#15384f" stroke="#15384f"></path><path d="M742 80L682 65L682 162Z" fill="#0c2435" stroke="#0c2435"></path><path d="M600 76L598 0L523 62Z" fill="#19435d" stroke="#19435d"></path><path d="M312 389L292 461L378 464Z" fill="#205a7a" stroke="#205a7a"></path><path d="M378 464L381 524L442 462Z" fill="#081a28" stroke="#081a28"></path><path d="M233 449L292 461L312 389Z" fill="#00101c" stroke="#00101c"></path><path d="M286 521L381 524L378 464Z" fill="#0c2435" stroke="#0c2435"></path><path d="M594 600L610 516L532 515Z" fill="#1d4e6b" stroke="#1d4e6b"></path><path d="M226 285L231 374L290 304Z" fill="#246688" stroke="#246688"></path><path d="M748 231L753 148L682 162Z" fill="#1d4e6b" stroke="#1d4e6b"></path><path d="M825 164L753 148L748 231Z" fill="#081a28" stroke="#081a28"></path><path d="M662 0L598 0L600 76Z" fill="#112e42" stroke="#112e42"></path><path d="M758 445L676 372L661 440Z" fill="#205a7a" stroke="#205a7a"></path><path d="M758 445L758 380L676 372Z" fill="#277297" stroke="#277297"></path><path d="M749 289L829 221L748 231Z" fill="#00101c" stroke="#00101c"></path><path d="M461 0L375 0L456 67Z" fill="#112e42" stroke="#112e42"></path><path d="M285 86L219 158L301 162Z" fill="#00101c" stroke="#00101c"></path><path d="M225 224L145 214L226 285Z" fill="#15384f" stroke="#15384f"></path><path d="M753 148L742 80L682 162Z" fill="#112e42" stroke="#112e42"></path><path d="M682 65L662 0L600 76Z" fill="#081a28" stroke="#081a28"></path><path d="M237 0L239 82L285 86Z" fill="#277297" stroke="#277297"></path><path d="M285 86L239 82L219 158Z" fill="#00101c" stroke="#00101c"></path><path d="M755 0L662 0L682 65Z" fill="#15384f" stroke="#15384f"></path><path d="M231 374L233 449L312 389Z" fill="#277297" stroke="#277297"></path><path d="M292 461L286 521L378 464Z" fill="#19435d" stroke="#19435d"></path><path d="M157 379L233 449L231 374Z" fill="#19435d" stroke="#19435d"></path><path d="M157 379L231 374L226 285Z" fill="#246688" stroke="#246688"></path><path d="M679 530L758 445L661 440Z" fill="#15384f" stroke="#15384f"></path><path d="M529 600L532 515L453 518Z" fill="#297ea6" stroke="#297ea6"></path><path d="M610 516L679 530L661 440Z" fill="#00101c" stroke="#00101c"></path><path d="M375 0L310 0L361 79Z" fill="#246688" stroke="#246688"></path><path d="M233 449L286 521L292 461Z" fill="#081a28" stroke="#081a28"></path><path d="M450 600L529 600L453 518Z" fill="#0c2435" stroke="#0c2435"></path><path d="M450 600L453 518L381 524Z" fill="#297ea6" stroke="#297ea6"></path><path d="M382 600L450 600L381 524Z" fill="#19435d" stroke="#19435d"></path><path d="M835 306L749 289L758 380Z" fill="#0c2435" stroke="#0c2435"></path><path d="M835 306L829 221L749 289Z" fill="#112e42" stroke="#112e42"></path><path d="M753 148L833 61L742 80Z" fill="#297ea6" stroke="#297ea6"></path><path d="M835 368L835 306L758 380Z" fill="#00101c" stroke="#00101c"></path><path d="M829 221L825 164L748 231Z" fill="#205a7a" stroke="#205a7a"></path><path d="M833 61L825 164L900 159Z" fill="#246688" stroke="#246688"></path><path d="M529 600L594 600L532 515Z" fill="#15384f" stroke="#15384f"></path><path d="M294 600L382 600L381 524Z" fill="#15384f" stroke="#15384f"></path><path d="M149 146L145 214L219 158Z" fill="#277297" stroke="#277297"></path><path d="M219 158L145 214L225 224Z" fill="#246688" stroke="#246688"></path><path d="M137 294L157 379L226 285Z" fill="#297ea6" stroke="#297ea6"></path><path d="M233 449L234 536L286 521Z" fill="#15384f" stroke="#15384f"></path><path d="M838 448L758 380L758 445Z" fill="#0c2435" stroke="#0c2435"></path><path d="M838 448L835 368L758 380Z" fill="#081a28" stroke="#081a28"></path><path d="M145 214L137 294L226 285Z" fill="#246688" stroke="#246688"></path><path d="M679 530L747 526L758 445Z" fill="#246688" stroke="#246688"></path><path d="M748 600L747 526L679 530Z" fill="#081a28" stroke="#081a28"></path><path d="M163 80L149 146L219 158Z" fill="#15384f" stroke="#15384f"></path><path d="M145 214L86 218L137 294Z" fill="#19435d" stroke="#19435d"></path><path d="M163 80L219 158L239 82Z" fill="#297ea6" stroke="#297ea6"></path><path d="M310 0L237 0L285 86Z" fill="#0c2435" stroke="#0c2435"></path><path d="M833 61L755 0L742 80Z" fill="#15384f" stroke="#15384f"></path><path d="M742 80L755 0L682 65Z" fill="#277297" stroke="#277297"></path><path d="M152 523L234 536L233 449Z" fill="#0c2435" stroke="#0c2435"></path><path d="M286 521L294 600L381 524Z" fill="#1d4e6b" stroke="#1d4e6b"></path><path d="M237 0L163 80L239 82Z" fill="#081a28" stroke="#081a28"></path><path d="M594 600L681 600L679 530Z" fill="#297ea6" stroke="#297ea6"></path><path d="M234 536L294 600L286 521Z" fill="#0c2435" stroke="#0c2435"></path><path d="M823 537L758 445L747 526Z" fill="#297ea6" stroke="#297ea6"></path><path d="M823 537L838 448L758 445Z" fill="#277297" stroke="#277297"></path><path d="M900 308L900 237L835 306Z" fill="#19435d" stroke="#19435d"></path><path d="M88 438L145 455L157 379Z" fill="#297ea6" stroke="#297ea6"></path><path d="M157 379L145 455L233 449Z" fill="#00101c" stroke="#00101c"></path><path d="M234 536L229 600L294 600Z" fill="#15384f" stroke="#15384f"></path><path d="M900 159L825 164L829 221Z" fill="#15384f" stroke="#15384f"></path><path d="M825 164L833 61L753 148Z" fill="#277297" stroke="#277297"></path><path d="M900 237L829 221L835 306Z" fill="#246688" stroke="#246688"></path><path d="M900 308L835 306L835 368Z" fill="#0c2435" stroke="#0c2435"></path><path d="M900 376L900 308L835 368Z" fill="#15384f" stroke="#15384f"></path><path d="M85 163L145 214L149 146Z" fill="#0c2435" stroke="#0c2435"></path><path d="M85 163L86 218L145 214Z" fill="#205a7a" stroke="#205a7a"></path><path d="M137 294L79 377L157 379Z" fill="#297ea6" stroke="#297ea6"></path><path d="M681 600L748 600L679 530Z" fill="#112e42" stroke="#112e42"></path><path d="M900 237L900 159L829 221Z" fill="#205a7a" stroke="#205a7a"></path><path d="M900 441L900 376L838 448Z" fill="#297ea6" stroke="#297ea6"></path><path d="M838 448L900 376L835 368Z" fill="#0c2435" stroke="#0c2435"></path><path d="M73 80L149 146L163 80Z" fill="#081a28" stroke="#081a28"></path><path d="M73 80L85 163L149 146Z" fill="#0c2435" stroke="#0c2435"></path><path d="M900 0L821 0L833 61Z" fill="#19435d" stroke="#19435d"></path><path d="M833 61L821 0L755 0Z" fill="#205a7a" stroke="#205a7a"></path><path d="M159 600L229 600L234 536Z" fill="#0c2435" stroke="#0c2435"></path><path d="M748 600L823 537L747 526Z" fill="#112e42" stroke="#112e42"></path><path d="M145 455L152 523L233 449Z" fill="#1d4e6b" stroke="#1d4e6b"></path><path d="M84 537L152 523L145 455Z" fill="#0c2435" stroke="#0c2435"></path><path d="M62 308L137 294L86 218Z" fill="#1d4e6b" stroke="#1d4e6b"></path><path d="M62 308L79 377L137 294Z" fill="#19435d" stroke="#19435d"></path><path d="M0 310L62 308L0 220Z" fill="#0c2435" stroke="#0c2435"></path><path d="M84 537L88 438L0 517Z" fill="#081a28" stroke="#081a28"></path><path d="M79 377L88 438L157 379Z" fill="#19435d" stroke="#19435d"></path><path d="M900 533L900 441L838 448Z" fill="#15384f" stroke="#15384f"></path><path d="M237 0L138 0L163 80Z" fill="#297ea6" stroke="#297ea6"></path><path d="M900 159L900 68L833 61Z" fill="#205a7a" stroke="#205a7a"></path><path d="M138 0L73 80L163 80Z" fill="#0c2435" stroke="#0c2435"></path><path d="M0 220L62 308L86 218Z" fill="#205a7a" stroke="#205a7a"></path><path d="M748 600L828 600L823 537Z" fill="#0c2435" stroke="#0c2435"></path><path d="M823 537L900 533L838 448Z" fill="#15384f" stroke="#15384f"></path><path d="M84 537L159 600L152 523Z" fill="#112e42" stroke="#112e42"></path><path d="M152 523L159 600L234 536Z" fill="#19435d" stroke="#19435d"></path><path d="M828 600L900 533L823 537Z" fill="#1d4e6b" stroke="#1d4e6b"></path><path d="M900 68L900 0L833 61Z" fill="#0c2435" stroke="#0c2435"></path><path d="M88 438L84 537L145 455Z" fill="#00101c" stroke="#00101c"></path><path d="M0 452L88 438L79 377Z" fill="#205a7a" stroke="#205a7a"></path><path d="M0 220L86 218L85 163Z" fill="#0c2435" stroke="#0c2435"></path><path d="M62 308L0 370L79 377Z" fill="#15384f" stroke="#15384f"></path><path d="M0 159L0 220L85 163Z" fill="#112e42" stroke="#112e42"></path><path d="M138 0L74 0L73 80Z" fill="#112e42" stroke="#112e42"></path><path d="M73 80L0 159L85 163Z" fill="#277297" stroke="#277297"></path><path d="M0 310L0 370L62 308Z" fill="#0c2435" stroke="#0c2435"></path><path d="M0 87L0 159L73 80Z" fill="#1d4e6b" stroke="#1d4e6b"></path><path d="M0 0L0 87L73 80Z" fill="#15384f" stroke="#15384f"></path><path d="M828 600L900 600L900 533Z" fill="#15384f" stroke="#15384f"></path><path d="M0 370L0 452L79 377Z" fill="#205a7a" stroke="#205a7a"></path><path d="M0 517L65 600L84 537Z" fill="#112e42" stroke="#112e42"></path><path d="M84 537L65 600L159 600Z" fill="#205a7a" stroke="#205a7a"></path><path d="M0 452L0 517L88 438Z" fill="#112e42" stroke="#112e42"></path><path d="M74 0L0 0L73 80Z" fill="#112e42" stroke="#112e42"></path><path d="M0 517L0 600L65 600Z" fill="#081a28" stroke="#081a28"></path></g></svg>
